<svg id="Capa_1" enable-background="new 0 0 512 512" height="512" viewBox="0 0 512 512" width="512" xmlns="http://www.w3.org/2000/svg"><g><g><g><g><g><g><path d="m512 188.224v294.652c0 5.275-4.275 9.55-9.56 9.55h-210.878c-5.275 0-9.56-4.275-9.56-9.55v-294.652c0-5.275 4.286-9.56 9.56-9.56h210.878c5.285 0 9.56 4.286 9.56 9.56z" fill="#b9acac"/><g fill="#9e9797"><path d="m386.493 178.664v282.404c0 6.109-4.945 11.054-11.054 11.054h-93.437v-283.898c0-5.275 4.286-9.56 9.56-9.56z"/><path d="m512 262.508v-74.284c0-5.278-4.279-9.558-9.557-9.558h-210.88c-5.278 0-9.558 4.279-9.558 9.558v74.284z"/><path d="m511.996 188.22v294.653c0 5.282-4.275 9.558-9.558 9.558h-32.414c5.282 0 9.558-4.276 9.558-9.558v-294.653c0-5.273-4.276-9.558-9.558-9.558h32.414c5.283 0 9.558 4.285 9.558 9.558z"/></g><path d="m512 188.224v44.978h-229.998v-44.978c0-5.275 4.286-9.56 9.56-9.56h210.878c5.285 0 9.56 4.286 9.56 9.56z" fill="#3ad1e0"/><path d="m417.326 189.337c0 15.216-12.331 27.557-27.547 27.557-15.226 0-27.557-12.342-27.557-27.557 0-3.791.762-7.397 2.143-10.673h50.819c1.38 3.276 2.142 6.882 2.142 10.673z" fill="#20bfd5"/><path d="m511.996 188.22v44.982h-32.414v-44.982c0-5.273-4.276-9.558-9.558-9.558h32.414c5.283 0 9.558 4.285 9.558 9.558z" fill="#20bfd5"/></g></g><g><g><path d="m229.998 188.224v294.652c0 5.275-4.286 9.55-9.56 9.55h-210.878c-5.285 0-9.56-4.275-9.56-9.55v-294.652c0-5.275 4.275-9.56 9.56-9.56h210.878c5.275 0 9.56 4.286 9.56 9.56z" fill="#b9acac"/><g fill="#9e9797"><path d="m229.998 188.224v283.897h-98.454c-6.099 0-11.054-4.945-11.054-11.054v-282.403h99.948c5.275 0 9.56 4.286 9.56 9.56z"/><path d="m229.995 262.508v-74.284c0-5.278-4.279-9.558-9.558-9.558h-210.88c-5.278 0-9.557 4.279-9.557 9.558v74.284z"/><path d="m229.992 188.22v294.653c0 5.282-4.275 9.558-9.557 9.558h-32.414c5.282 0 9.558-4.276 9.558-9.558v-294.653c0-5.273-4.276-9.558-9.558-9.558h32.414c5.281 0 9.557 4.285 9.557 9.558z"/></g><path d="m229.995 233.205h-229.995v-44.982c0-5.278 4.279-9.557 9.557-9.557h210.88c5.278 0 9.557 4.279 9.557 9.557v44.982z" fill="#3ad1e0"/><path d="m229.992 188.22v44.982h-32.414v-44.982c0-5.273-4.276-9.558-9.558-9.558h32.414c5.282 0 9.558 4.285 9.558 9.558z" fill="#20bfd5"/></g></g></g><g><g><path d="m375.443 447.732h-243.895c-6.105 0-11.054-4.949-11.054-11.054v-340.778c0-6.105 4.949-11.054 11.054-11.054h243.895c6.105 0 11.054 4.949 11.054 11.054v340.779c0 6.105-4.949 11.053-11.054 11.053z" fill="#f8f3f1"/><path d="m386.497 176.885v-80.985c0-6.105-4.949-11.054-11.054-11.054h-243.895c-6.105 0-11.054 4.949-11.054 11.054v80.986h266.003z" fill="#efe2dd"/><path d="m386.493 95.895v340.784c0 6.109-4.945 11.054-11.054 11.054h-37.488c6.109 0 11.054-4.945 11.054-11.054v-340.784c0-6.099-4.945-11.054-11.054-11.054h37.488c6.109 0 11.054 4.956 11.054 11.054z" fill="#efe2dd"/><path d="m386.493 95.899v52.024h-266.003v-52.024c0-6.109 4.955-11.054 11.054-11.054h243.895c6.109.001 11.054 4.945 11.054 11.054z" fill="#31a7fb"/><g fill="#1c96f9"><path d="m337.951 93.901c0 13.506-10.951 24.467-24.467 24.467s-24.467-10.961-24.467-24.467c0-3.204.618-6.253 1.741-9.055h45.452c1.123 2.802 1.741 5.851 1.741 9.055z"/><path d="m386.493 95.895v52.024h-37.488v-52.024c0-6.099-4.945-11.054-11.054-11.054h37.488c6.109 0 11.054 4.956 11.054 11.054z"/></g></g><g><path d="m271.059 321.779c-1.775 0-3.557-.608-5.013-1.85-3.467-2.96-8.413-4.666-13.57-4.682-.023 0-.047 0-.069 0-5.132 0-10.058 1.675-13.528 4.6-3.262 2.753-8.136 2.337-10.887-.926-2.751-3.262-2.337-8.136.926-10.887 6.303-5.316 14.641-8.24 23.486-8.24h.119c8.89.027 17.256 3.004 23.556 8.381 3.245 2.771 3.631 7.647.861 10.893-1.529 1.791-3.698 2.711-5.881 2.711z" fill="#99d53b"/><g><g><path d="m211.5 286.66c-.015 0-.029 0-.044 0-4.267-.024-7.753-3.503-7.729-7.77.024-4.252 3.434-7.684 7.68-7.684h.044.091c4.267.024 7.707 3.502 7.684 7.769-.024 4.254-3.48 7.685-7.726 7.685z" fill="#99d53b"/></g></g></g></g></g><g><g><path d="m159.866 124.046c-.014 0-.027 0-.041 0-4.267-.022-7.758-3.499-7.735-7.767.022-4.253 3.429-7.687 7.677-7.687h.041l.098.001c4.267.022 7.709 3.499 7.687 7.766-.024 4.254-3.479 7.687-7.727 7.687z" fill="#f8f3f1"/></g><g fill="#f8f3f1"><path d="m159.854 124.046c-4.267 0-7.774-3.459-7.774-7.726s3.411-7.726 7.678-7.726h.096c4.267 0 7.726 3.459 7.726 7.726 0 4.266-3.459 7.726-7.726 7.726z"/><path d="m183.227 124.046c-4.267 0-7.775-3.459-7.775-7.726s3.411-7.726 7.679-7.726h.096c4.267 0 7.726 3.459 7.726 7.726.001 4.266-3.459 7.726-7.726 7.726z"/><path d="m206.602 124.046c-4.267 0-7.775-3.459-7.775-7.726s3.411-7.726 7.679-7.726h.096c4.267 0 7.726 3.459 7.726 7.726 0 4.266-3.459 7.726-7.726 7.726z"/></g></g></g><g><path d="m79.115 110.855c-3.017-3.017-7.909-3.017-10.927 0l-4.116 4.116-4.116-4.116c-3.017-3.018-7.909-3.018-10.927 0-3.018 3.017-3.018 7.909 0 10.927l4.116 4.116-4.116 4.116c-3.018 3.018-3.018 7.909 0 10.927 1.509 1.509 3.486 2.263 5.463 2.263s3.955-.755 5.463-2.263l4.116-4.116 4.116 4.116c1.509 1.509 3.486 2.263 5.463 2.263s3.955-.755 5.463-2.263c3.018-3.017 3.018-7.909 0-10.927l-4.116-4.116 4.116-4.116c3.019-3.018 3.019-7.909.002-10.927z" fill="#bcea73"/><path d="m461.794 116.319 4.116-4.116c3.018-3.017 3.018-7.909 0-10.927-3.017-3.017-7.909-3.017-10.927 0l-4.116 4.116-4.116-4.116c-3.017-3.017-7.909-3.017-10.927 0s-3.018 7.909 0 10.927l4.116 4.116-4.116 4.116c-3.018 3.017-3.018 7.909 0 10.927 1.509 1.509 3.486 2.263 5.463 2.263s3.955-.755 5.463-2.263l4.116-4.116 4.116 4.116c1.509 1.509 3.486 2.263 5.463 2.263s3.955-.755 5.463-2.263c3.018-3.017 3.018-7.909 0-10.927z" fill="#bcea73"/><path d="m269.222 21.832c-3.017-3.017-7.909-3.017-10.927 0l-4.116 4.116-4.116-4.116c-3.017-3.017-7.909-3.017-10.927 0s-3.018 7.909 0 10.927l4.116 4.116-4.116 4.116c-3.018 3.017-3.018 7.909 0 10.927 1.509 1.509 3.486 2.263 5.463 2.263s3.955-.755 5.463-2.263l4.116-4.116 4.116 4.116c1.509 1.509 3.486 2.263 5.463 2.263s3.955-.755 5.463-2.263c3.018-3.017 3.018-7.909 0-10.927l-4.116-4.116 4.116-4.116c3.02-3.017 3.02-7.91.002-10.927z" fill="#64b9fc"/></g><g><path d="m362.222 166.93c0-15.217 12.336-27.552 27.552-27.552 15.217 0 27.552 12.336 27.552 27.552s-12.336 27.552-27.552 27.552-27.552-12.336-27.552-27.552" fill="#bcea73"/><path d="m375.8 190.673c10.816-2.493 18.874-12.175 18.874-23.746 0-11.559-8.046-21.254-18.861-23.747 4.092-2.418 8.864-3.803 13.963-3.803 15.21 0 27.549 12.339 27.549 27.549 0 15.222-12.339 27.561-27.549 27.561-5.099.001-9.884-1.384-13.976-3.814" fill="#99d53b"/></g><g><path d="m289.017 69.431c0-13.513 10.954-24.467 24.467-24.467s24.467 10.954 24.467 24.467-10.954 24.467-24.467 24.467-24.467-10.954-24.467-24.467" fill="#a8e7ef"/><path d="m301.074 90.516c9.604-2.214 16.76-10.812 16.76-21.087 0-10.264-7.145-18.874-16.749-21.087 3.634-2.147 7.871-3.377 12.4-3.377 13.507 0 24.464 10.957 24.464 24.464 0 13.518-10.957 24.475-24.464 24.475-4.528 0-8.777-1.23-12.411-3.388" fill="#70d9e6"/></g></g><path d="m295.573 286.66c-.015 0-.029 0-.044 0-4.267-.024-7.753-3.503-7.729-7.77.024-4.252 3.434-7.684 7.68-7.684h.044.091c4.267.024 7.707 3.502 7.684 7.769-.024 4.254-3.48 7.685-7.726 7.685z" fill="#99d53b"/></svg>